<svg xmlns="http://www.w3.org/2000/svg" x="0px" y="0px"
width="64" height="64"
viewBox="0 0 172 172"
style=" fill:#000000;"><g fill="none" fill-rule="nonzero" stroke="none" stroke-width="1" stroke-linecap="butt" stroke-linejoin="miter" stroke-miterlimit="10" stroke-dasharray="" stroke-dashoffset="0" font-family="none" font-weight="none" font-size="none" text-anchor="none" style="mix-blend-mode: normal"><path d="M0,172v-172h172v172z" fill="none"></path><g fill="#f1c40f"><path d="M86,5.73333c-44.33006,0 -80.26667,35.93661 -80.26667,80.26667c0,44.33006 35.93661,80.26667 80.26667,80.26667c44.33006,0 80.26667,-35.93661 80.26667,-80.26667c-0.0474,-44.31041 -35.95626,-80.21927 -80.26667,-80.26667zM83.14453,17.25599c18.72672,-0.7779 36.96021,6.11803 50.48534,19.09361c13.52513,12.97559 21.17102,30.90753 21.17012,49.6504c-0.04108,37.98016 -30.81984,68.75892 -68.8,68.8c-37.47238,0.04444 -68.089,-29.90761 -68.86678,-67.37194c-0.77777,-37.46433 28.56937,-68.66126 66.01131,-70.17207zM125.70781,51.67839c-1.36135,0.08519 -2.64773,0.65295 -3.62812,1.6013l-53.27969,53.27969l-18.87969,-18.87969c-1.44097,-1.48376 -3.5694,-2.07638 -5.56983,-1.55081c-2.00043,0.52557 -3.56271,2.08785 -4.08828,4.08828c-0.52557,2.00043 0.06705,4.12886 1.55081,5.56983l22.93333,22.93333c2.23891,2.23843 5.86838,2.23843 8.10729,0l57.33333,-57.33333c1.64585,-1.70121 2.07704,-4.23899 1.08542,-6.38832c-0.99162,-2.14933 -3.20217,-3.46832 -5.56459,-3.32027z"></path></g></g></svg>