<svg width="11" height="21" viewBox="0 0 11 21" fill="none" xmlns="http://www.w3.org/2000/svg">
<path d="M7.10156 17C7.00781 16.8125 6.93164 16.4785 6.87305 15.998C6.11719 16.7832 5.21484 17.1758 4.16602 17.1758C3.22852 17.1758 2.45801 16.9121 1.85449 16.3848C1.25684 15.8516 0.958008 15.1777 0.958008 14.3633C0.958008 13.373 1.33301 12.6055 2.08301 12.0605C2.83887 11.5098 3.89941 11.2344 5.26465 11.2344H6.84668V10.4873C6.84668 9.91895 6.67676 9.46777 6.33691 9.13379C5.99707 8.79395 5.49609 8.62402 4.83398 8.62402C4.25391 8.62402 3.76758 8.77051 3.375 9.06348C2.98242 9.35645 2.78613 9.71094 2.78613 10.127H1.15137C1.15137 9.65234 1.31836 9.19531 1.65234 8.75586C1.99219 8.31055 2.44922 7.95898 3.02344 7.70117C3.60352 7.44336 4.23926 7.31445 4.93066 7.31445C6.02637 7.31445 6.88477 7.58984 7.50586 8.14062C8.12695 8.68555 8.44922 9.43848 8.47266 10.3994V14.7764C8.47266 15.6494 8.58398 16.3438 8.80664 16.8594V17H7.10156ZM4.40332 15.7607C4.91309 15.7607 5.39648 15.6289 5.85352 15.3652C6.31055 15.1016 6.6416 14.7588 6.84668 14.3369V12.3857H5.57227C3.58008 12.3857 2.58398 12.9688 2.58398 14.1348C2.58398 14.6445 2.75391 15.043 3.09375 15.3301C3.43359 15.6172 3.87012 15.7607 4.40332 15.7607Z" fill="black"/>
<path d="M8.99707 17H7.37109V7.49023H8.99707V17ZM7.23926 4.96777C7.23926 4.7041 7.31836 4.48145 7.47656 4.2998C7.64062 4.11816 7.88086 4.02734 8.19727 4.02734C8.51367 4.02734 8.75391 4.11816 8.91797 4.2998C9.08203 4.48145 9.16406 4.7041 9.16406 4.96777C9.16406 5.23145 9.08203 5.45117 8.91797 5.62695C8.75391 5.80273 8.51367 5.89062 8.19727 5.89062C7.88086 5.89062 7.64062 5.80273 7.47656 5.62695C7.31836 5.45117 7.23926 5.23145 7.23926 4.96777Z" fill="black"/>
</svg>
